<svg xmlns="http://www.w3.org/2000/svg" xmlns:xlink="http://www.w3.org/1999/xlink" version="1.0" x="0px" y="0px" viewBox="0 0 100 125" enable-background="new 0 0 100 100" xml:space="preserve"><path d="M86.907,76.454c-2.592,3.562-9.922,2.51-13.484,5.102c-3.527,2.567-4.777,9.877-9.014,11.252  C60.321,94.136,55.031,89,50.5,89s-9.821,5.136-13.909,3.808c-4.237-1.376-5.487-8.686-9.014-11.253  c-3.562-2.592-10.892-1.54-13.484-5.102c-2.567-3.527,0.681-10.16-0.694-14.397C12.071,57.968,5.5,54.531,5.5,50  s6.571-7.968,7.898-12.056c1.376-4.237-1.872-10.871,0.695-14.398c2.592-3.562,9.922-2.51,13.484-5.102  c3.527-2.567,4.777-9.877,9.014-11.252C40.679,5.864,45.969,11,50.5,11s9.821-5.136,13.909-3.808  c4.237,1.376,5.487,8.686,9.014,11.253c3.562,2.592,10.892,1.54,13.484,5.102c2.567,3.527-0.681,10.16,0.694,14.397  C88.929,42.032,95.5,45.469,95.5,50c0,4.531-6.571,7.968-7.898,12.056C86.226,66.293,89.474,72.927,86.907,76.454z M72.664,37.502  c-0.781-0.781-2.047-0.781-2.828,0L48.417,58.922l-13.67-13.669c-0.781-0.781-2.047-0.781-2.828,0c-0.781,0.781-0.781,2.047,0,2.828  l16.498,16.498l24.247-24.248C73.445,39.55,73.445,38.283,72.664,37.502z"/><text x="0" y="115" fill="#000000" font-size="5px" font-weight="bold" font-family="'Helvetica Neue', Helvetica, Arial-Unicode, Arial, Sans-serif">Created by Yaroslav Samoilov</text><text x="0" y="120" fill="#000000" font-size="5px" font-weight="bold" font-family="'Helvetica Neue', Helvetica, Arial-Unicode, Arial, Sans-serif">from the Noun Project</text></svg>